# Blender 5.0.1
# www.blender.org
mtllib pyramid.mtl
o box
v -0.500000 -0.500000 0.500000
v -0.500000 -0.500000 -0.500000
v 0.500000 -0.500000 -0.500000
v 0.500000 -0.500000 0.500000
v 0.000000 0.500000 -0.000000
vn -0.0000 -1.0000 -0.0000
vn -0.0000 -0.0000 1.0000
vn 1.0000 -0.0000 -0.0000
vn -0.0000 -0.0000 -1.0000
vn -1.0000 -0.0000 -0.0000
vt 1.000000 0.000000
vt 1.000000 1.000000
vt 0.000000 1.000000
vt 0.000000 0.000000
s 1
f 1/1/1 2/2/1 3/3/1 4/4/1
f 1/4/2 4/1/2 5/3/2
f 4/4/3 3/1/3 5/3/3
f 3/4/4 2/1/4 5/3/4
f 2/4/5 1/1/5 5/3/5
